<?xml version="1.0" encoding="UTF-8"?>
<svg version="1.1" xmlns="http://www.w3.org/2000/svg" width="500" height="500">
<path d="M0 0 C2.74351323 -0.00161661 5.48701982 -0.00620758 8.23052979 -0.01062012 C14.86727785 -0.01944906 21.50398034 -0.01762147 28.14073009 -0.01179484 C33.54061579 -0.00725289 38.94048883 -0.00667631 44.3403759 -0.00884247 C45.49917 -0.00930217 45.49917 -0.00930217 46.68137408 -0.00977115 C48.25140604 -0.01041069 49.821438 -0.01105912 51.39146995 -0.01171634 C66.06559517 -0.01740049 80.73969528 -0.01089175 95.41381638 -0.0001156 C107.9697378 0.00881994 120.52562222 0.00726411 133.08154297 -0.00195312 C147.70960073 -0.01268668 162.33763656 -0.01685321 176.96569771 -0.0107286 C178.52920941 -0.01009159 180.09272112 -0.00946284 181.65623283 -0.00884247 C182.42524593 -0.00853392 183.19425903 -0.00822537 183.98657556 -0.00790747 C189.37242442 -0.00618989 194.75825923 -0.00907522 200.14410591 -0.01380157 C206.71836228 -0.01944476 213.29257096 -0.01782233 219.86682195 -0.00724009 C223.2128133 -0.00202944 226.55866078 -0.00094667 229.90466118 -0.00653839 C258.99035874 -0.05063875 286.90399972 1.49875753 308.98999023 22.79394531 C322.8887925 36.91874436 331.16806103 56.35621383 332.01997375 76.03936768 C332.07931767 77.32789418 332.07931767 77.32789418 332.13986045 78.64245152 C332.63481708 90.59605765 332.57935219 102.55799366 332.57666016 114.51953125 C332.57965892 117.20584748 332.58303579 119.89216097 332.58683777 122.57847595 C332.59506602 129.06754658 332.59788892 135.55660812 332.59845015 142.04568353 C332.59892856 147.32491347 332.60099933 152.60414045 332.60415077 157.88336945 C332.61293184 172.90197768 332.61757354 187.92057883 332.6168203 202.93918964 C332.61676036 204.14805786 332.61676036 204.14805786 332.61669922 205.38134766 C332.61665834 206.18825972 332.61661746 206.99517179 332.61657534 207.82653573 C332.61616841 220.91888339 332.62575641 234.01120235 332.63983759 247.1035417 C332.65423374 260.59660223 332.66110616 274.08964878 332.66024381 287.58271718 C332.65991322 295.13833537 332.66260032 302.69392339 332.67342186 310.24953461 C332.68256914 316.67627765 332.68466722 323.10297679 332.67791244 329.52972355 C332.67466994 332.80066029 332.67561636 336.0714964 332.68326569 339.34242821 C332.735095 363.05153654 331.73245911 383.29733705 319.43139648 404.25878906 C318.93897461 405.11472656 318.44655273 405.97066406 317.93920898 406.85253906 C316.84067561 408.69859514 315.64693083 410.48758188 314.43139648 412.25878906 C313.77139648 412.25878906 313.11139648 412.25878906 312.43139648 412.25878906 C312.19163086 412.82984375 311.95186523 413.40089844 311.70483398 413.98925781 C304.59124653 426.66715447 286.88995816 434.00559805 273.60890293 437.77621174 C264.42094002 439.94944137 254.99674188 439.732103 245.60888672 439.88256836 C243.57836869 439.92068878 241.5478508 439.95881658 239.51733303 439.9969511 C213.24157367 440.45541674 186.96123767 440.35861685 160.68272868 440.28408983 C157.14975421 440.27434241 153.61677675 440.26584842 150.08379936 440.25723839 C138.29957384 440.22813609 126.51535912 440.19669193 114.73116398 440.15701771 C113.98797404 440.15452122 113.2447841 440.15202474 112.47907325 440.14945261 C111.73463127 440.1469514 110.99018929 440.14445019 110.22318846 440.14187318 C108.71584961 440.13681362 107.20851075 440.1317589 105.70117188 440.12670898 C104.5797537 440.12294867 104.5797537 440.12294867 103.43568062 440.11911239 C91.23347788 440.07866561 79.03130583 440.05567782 66.82904894 440.03973035 C54.1927914 440.0229493 41.55664097 439.99124131 28.92045683 439.94484633 C21.86771188 439.91930311 14.81507944 439.89999306 7.76228523 439.89747047 C1.15836358 439.89505059 -5.44527156 439.87223942 -12.04910851 439.83591461 C-14.46005136 439.82585125 -16.87103332 439.82244975 -19.28199387 439.82644463 C-35.60880002 439.84830726 -49.78755351 438.82305155 -64.56860352 431.25878906 C-65.83897461 430.66517578 -65.83897461 430.66517578 -67.13500977 430.05957031 C-84.11295024 421.63097682 -96.57207858 405.70636795 -102.72094727 387.92675781 C-105.17862568 380.13390562 -106.70805072 373.14777589 -106.87910461 364.96499634 C-106.89947088 364.13279627 -106.91983715 363.30059619 -106.94082057 362.44317794 C-107.00651447 359.65215618 -107.06424085 356.86104927 -107.12060547 354.06982422 C-107.1415202 353.08780887 -107.16243493 352.10579352 -107.18398345 351.09402013 C-107.72044521 325.47915116 -107.7332625 299.86279733 -107.73586059 274.24334669 C-107.73658257 270.22489886 -107.73867752 266.20645423 -107.7413578 262.18800735 C-107.75008424 248.82641295 -107.75478748 235.46482637 -107.75402733 222.10322909 C-107.75398737 221.39288908 -107.75394742 220.68254906 -107.75390625 219.95068359 C-107.75386537 219.2394426 -107.75382449 218.5282016 -107.75378237 217.79540785 C-107.75337342 206.19720915 -107.76302616 194.59904251 -107.77704462 183.00085311 C-107.79145667 170.97939255 -107.79831283 158.95794765 -107.79745084 146.93647826 C-107.79712157 140.23124075 -107.79995401 133.52604241 -107.81062889 126.82081223 C-107.82036731 120.53791539 -107.82035004 114.25509035 -107.81311226 107.97219086 C-107.81207492 105.6838508 -107.814378 103.3955061 -107.82047272 101.10717392 C-107.84656564 90.62458244 -107.76252257 80.21182949 -106.72138977 69.77310181 C-106.64961901 69.03029508 -106.57784825 68.28748835 -106.50390261 67.52217233 C-104.3835518 48.9672083 -93.43945174 30.70935752 -79.50610352 18.63378906 C-55.7769244 0.09023969 -28.85236401 -0.0482574 0 0 Z M125.18139648 68.88378906 C119.56838116 76.50145271 120.11854581 85.16407232 120.45800781 94.22387695 C120.49837253 95.61430946 120.53729854 97.00478436 120.5749054 98.39529419 C120.68035683 102.14519541 120.80576491 105.89418736 120.93493104 109.64333653 C121.06678494 113.57074738 121.18004727 117.49869471 121.29533386 121.42662048 C121.5161174 128.85349498 121.75347011 136.27974238 121.99686974 143.70590633 C122.2733121 152.16505767 122.53114163 160.62474478 122.78745615 169.08452618 C123.31481695 186.47662271 123.86539508 203.86790802 124.43139648 221.25878906 C120.21145399 220.3257219 116.62059592 218.41970333 112.80639648 216.44628906 C91.75253603 205.7746343 70.65847548 202.43821379 47.49389648 208.38378906 C34.59229809 212.63398117 20.93032408 219.58064926 12.43139648 230.25878906 C11.1924603 231.27246412 9.94123573 232.2712137 8.68139648 233.25878906 C-2.95332748 243.29401237 -11.50056205 261.64821439 -13.35375977 276.78613281 C-14.91937055 302.09209617 -11.22389741 325.07812463 5.43139648 345.25878906 C7.36846275 347.02231297 9.37754406 348.62688455 11.43139648 350.25878906 C13.09806315 351.92545573 14.76472982 353.5921224 16.43139648 355.25878906 C31.61912265 370.36022133 53.20192001 376.11152858 74.08764648 376.29003906 C95.27637741 375.33559172 115.00576998 366.69614423 130.43139648 352.25878906 C131.23577148 351.51628906 132.04014648 350.77378906 132.86889648 350.00878906 C134.65340174 348.40114993 134.65340174 348.40114993 134.43139648 346.25878906 C134.99987305 346.06027344 135.56834961 345.86175781 136.15405273 345.65722656 C139.32541732 343.709802 140.94464756 340.97759862 142.86889648 337.88378906 C143.45985107 336.9443042 143.45985107 336.9443042 144.06274414 335.98583984 C154.17752435 319.5112926 156.7765517 302.30580747 156.34545898 283.28222656 C156.32458221 282.14280609 156.30370544 281.00338562 156.28219604 279.82943726 C156.21255424 276.0974227 156.13453167 272.36563463 156.05639648 268.63378906 C156.00568686 266.0104278 155.9555661 263.3870551 155.90600586 260.76367188 C155.82892149 256.69560814 155.75114431 252.62756223 155.67034912 248.55957031 C155.48660958 239.30072139 155.32307993 230.04170391 155.17358398 220.78222656 C154.66966313 189.52232801 154.66966313 189.52232801 153.73828125 158.27319336 C153.3154633 146.26914099 153.33081174 134.2686078 153.43139648 122.25878906 C154.26562134 122.8345166 154.26562134 122.8345166 155.11669922 123.421875 C160.09793345 126.80900902 165.09622107 129.83931556 170.49389648 132.50878906 C171.14938477 132.84652344 171.80487305 133.18425781 172.48022461 133.53222656 C179.9599864 137.26843009 186.90847247 138.63410987 195.24389648 138.57128906 C196.0321582 138.56564941 196.82041992 138.56000977 197.63256836 138.55419922 C211.28754018 138.27135423 222.82739652 133.03128025 232.43139648 123.25878906 C238.62466974 116.4549114 243.34059141 109.47139015 247.43139648 101.25878906 C248.13324512 99.90005608 248.83646209 98.54202937 249.54077148 97.18457031 C250.27621962 95.7515268 251.01059903 94.31793429 251.74389648 92.88378906 C252.09395752 92.20550049 252.44401855 91.52721191 252.8046875 90.82836914 C255.8719837 84.73084148 256.99570946 80.71154662 255.16186523 74.18847656 C253.8249391 70.65670379 251.84725778 68.12985155 248.63452148 66.15332031 C246.00342943 65.0850223 243.89317219 64.88883134 241.05639648 64.82128906 C240.14116211 64.78132813 239.22592773 64.74136719 238.28295898 64.70019531 C234.38308728 65.46414278 231.96590706 67.3056725 229.43139648 70.25878906 C227.99920618 72.7238486 226.99503391 75.28173299 225.99389648 77.94628906 C223.58137123 83.92681578 220.893333 89.01606535 216.91186523 94.14550781 C215.30799134 96.23756588 215.30799134 96.23756588 214.48217773 98.90332031 C213.19184744 101.79577074 212.3211158 102.12576962 209.43139648 103.25878906 C208.29444336 103.896875 208.29444336 103.896875 207.13452148 104.54785156 C201.81102461 107.44695336 197.51578585 109.52589454 191.43139648 108.25878906 C186.7469484 106.75332368 182.53001287 104.99119999 178.43139648 102.25878906 C177.44139648 102.25878906 176.45139648 102.25878906 175.43139648 102.25878906 C175.19291992 101.67484375 174.95444336 101.09089844 174.70874023 100.48925781 C173.16858437 97.7998725 171.4584174 96.43687879 168.99389648 94.57128906 C168.21143555 93.96929687 167.42897461 93.36730469 166.62280273 92.74707031 C164.41423947 91.10229578 164.41423947 91.10229578 161.43139648 90.25878906 C161.087972 88.92801917 160.75519775 87.59446928 160.43139648 86.25878906 C159.44139648 85.59878906 158.45139648 84.93878906 157.43139648 84.25878906 C156.39350067 82.61545402 155.39571725 80.94635039 154.43139648 79.25878906 C152.96368378 76.99424833 152.96368378 76.99424833 151.43139648 75.25878906 C150.77139648 75.25878906 150.11139648 75.25878906 149.43139648 75.25878906 C149.36952148 74.70191406 149.30764648 74.14503906 149.24389648 73.57128906 C148.01731616 70.08025275 146.33018404 68.55366254 143.43139648 66.25878906 C136.32324626 63.30371538 131.43987452 64.36377715 125.18139648 68.88378906 Z " fill="#040404" transform="translate(137.568603515625,29.7412109375)"/>
<path d="M0 0 C0 0.66 0 1.32 0 2 C0.89203125 2.26296875 1.7840625 2.5259375 2.703125 2.796875 C14.17297667 6.98255547 22.17059031 18.37149257 27.48046875 28.94921875 C32.84822628 41.9132252 33.21623161 58.89245691 28.40234375 72.06640625 C24.75373395 79.69901338 20.09414867 86.15576909 14 92 C13.37738281 92.6084375 12.75476563 93.216875 12.11328125 93.84375 C-1.16349663 106.05492966 -16.0485854 106.87945413 -33.3203125 106.18652344 C-44.05320329 105.4394454 -51.80454783 100.72447358 -60 94 C-61.23556641 93.10087891 -61.23556641 93.10087891 -62.49609375 92.18359375 C-73.19939617 82.84951254 -78.42336354 68.89128146 -79.9375 55.125 C-80.63958338 39.32812389 -75.37873313 25.34311091 -65.26953125 13.3203125 C-59.27273644 7.18933812 -51.94390297 2.24336867 -44 -1 C-43.33613281 -1.29777344 -42.67226562 -1.59554688 -41.98828125 -1.90234375 C-28.76281392 -6.91094132 -12.91572371 -4.78993727 0 0 Z " fill="#080808" transform="translate(233,269)"/>
<path d="M0 0 C5.36952991 1.38306073 8.67053688 3.81133106 12.75 7.375 C13.32621094 7.85710938 13.90242188 8.33921875 14.49609375 8.8359375 C17.36805096 11.29952783 19.67089527 13.40460131 21 17 C20.278125 16.319375 19.55625 15.63875 18.8125 14.9375 C16.20776016 12.67271139 16.20776016 12.67271139 13.4375 13.375 C12.633125 13.58125 11.82875 13.7875 11 14 C8.6875 13.0625 8.6875 13.0625 7 12 C7 11.34 7 10.68 7 10 C6.34 9.67 5.68 9.34 5 9 C4.27306096 7.02111039 3.60183749 5.02045442 3 3 C2.01 3.33 1.02 3.66 0 4 C0 2.68 0 1.36 0 0 Z " fill="#575757" transform="translate(429,41)"/>
<path d="M0 0 C0.33 0.66 0.66 1.32 1 2 C1.66 2.33 2.32 2.66 3 3 C2.113125 3.721875 1.22625 4.44375 0.3125 5.1875 C-1.78585804 6.9303715 -3.68835537 8.68835537 -5.625 10.625 C-8.88596865 13.88596865 -11.38930143 16.17666097 -16 17 C-13.76900248 13.96584337 -11.45135168 11.45305631 -8.5625 9.0625 C-5.2544096 6.31764051 -2.6531859 3.37678206 0 0 Z " fill="#717171" transform="translate(276,372)"/>
<path d="M0 0 C1 2 1 2 0.0703125 4.97265625 C-1.40922353 9.76809362 -1.21814015 14.46166652 -1.125 19.4375 C-1.11597656 20.35982422 -1.10695313 21.28214844 -1.09765625 22.23242188 C-1.0742766 24.48855809 -1.04150916 26.74413684 -1 29 C-1.33 29 -1.66 29 -2 29 C-2.98217992 23.20989097 -3.21586018 17.55528231 -3.25 11.6875 C-3.270625 10.78193359 -3.29125 9.87636719 -3.3125 8.94335938 C-3.31765625 8.07904297 -3.3228125 7.21472656 -3.328125 6.32421875 C-3.3374707 5.54135498 -3.34681641 4.75849121 -3.35644531 3.9519043 C-3.18000488 2.98571167 -3.18000488 2.98571167 -3 2 C-2.01 1.34 -1.02 0.68 0 0 Z " fill="#808080" transform="translate(260,101)"/>
<path d="M0 0 C0.66 0.33 1.32 0.66 2 1 C-5.08474576 10.69491525 -5.08474576 10.69491525 -9 12 C-7.55575365 8.76138697 -5.74227753 6.38030837 -3.375 3.75 C-2.74335937 3.04359375 -2.11171875 2.3371875 -1.4609375 1.609375 C-0.97882812 1.07828125 -0.49671875 0.5471875 0 0 Z " fill="#949494" transform="translate(56,50)"/>
<path d="M0 0 C0.66 0.33 1.32 0.66 2 1 C-2.625 4 -2.625 4 -6 4 C-6.103125 4.639375 -6.20625 5.27875 -6.3125 5.9375 C-6.539375 6.618125 -6.76625 7.29875 -7 8 C-7.99 8.33 -8.98 8.66 -10 9 C-10.33 7.68 -10.66 6.36 -11 5 C-9.21289414 4.13633178 -7.4201535 3.28431406 -5.625 2.4375 C-4.62726563 1.96183594 -3.62953125 1.48617187 -2.6015625 0.99609375 C-1.74304688 0.66738281 -0.88453125 0.33867188 0 0 Z " fill="#575757" transform="translate(82,35)"/>
<path d="M0 0 C1.65 0 3.3 0 5 0 C5.268125 0.7425 5.53625 1.485 5.8125 2.25 C6.94229421 4.86636554 8.20893202 6.80187111 10 9 C6.55729549 7.46990911 3.81074178 5.5068778 1 3 C0.67 2.01 0.34 1.02 0 0 Z " fill="#7E7E7E" transform="translate(167,356)"/>
<path d="M0 0 C2.36557373 2.13300328 3.62967528 3.95949399 4.75 6.9375 C5.01296875 7.60652344 5.2759375 8.27554687 5.546875 8.96484375 C6.07046274 11.31647491 5.74954377 12.73617523 5 15 C4.34865075 13.43979133 3.70417036 11.87671421 3.0625 10.3125 C2.70285156 9.44238281 2.34320313 8.57226562 1.97265625 7.67578125 C1.0429688 5.11820735 0.45837375 2.6778677 0 0 Z " fill="#919191" transform="translate(257,294)"/>
<path d="M0 0 C3.33333333 0.66666667 6.66666667 1.33333333 10 2 C11.40185547 2.28037109 11.40185547 2.28037109 12.83203125 2.56640625 C13.54746094 2.70949219 14.26289063 2.85257812 15 3 C15 3.33 15 3.66 15 4 C9.84204369 4.17786056 5.81970715 4.11596899 1 2 C0.67 1.34 0.34 0.68 0 0 Z " fill="#898989" transform="translate(181,401)"/>
<path d="M0 0 C0.66 0.99 1.32 1.98 2 3 C1.071875 3.5775 0.14375 4.155 -0.8125 4.75 C-3.59815842 6.71634712 -5.18738696 8.18037972 -7 11 C-7.66 10.67 -8.32 10.34 -9 10 C-6.03 6.7 -3.06 3.4 0 0 Z " fill="#6F6F6F" transform="translate(376,145)"/>
<path d="M0 0 C1.32 0 2.64 0 4 0 C3.625 2.4375 3.625 2.4375 3 5 C2.01 5.495 2.01 5.495 1 6 C1 5.01 1 4.02 1 3 C0.34 3 -0.32 3 -1 3 C-0.67 2.01 -0.34 1.02 0 0 Z " fill="#464646" transform="translate(352,120)"/>
<path d="M0 0 C0.33 0.99 0.66 1.98 1 3 C1.66 3.33 2.32 3.66 3 4 C2.01 4.33 1.02 4.66 0 5 C0 5.66 0 6.32 0 7 C-0.99 7.33 -1.98 7.66 -3 8 C-1.125 2.25 -1.125 2.25 0 0 Z " fill="#525252" transform="translate(40,71)"/>
<path d="M0 0 C0.66 0.33 1.32 0.66 2 1 C-0.57404971 4.86107457 -2.61020259 4.94319692 -7 6 C-4.74259377 3.66475218 -2.7194239 1.81294927 0 0 Z " fill="#A0A0A0" transform="translate(258,389)"/>
</svg>
